<?xml version="1.0" encoding="UTF-8"?>
<svg id="Layer_1" xmlns="http://www.w3.org/2000/svg" version="1.1" viewBox="0 0 157.5 53.5">
  <!-- Generator: Adobe Illustrator 29.8.2, SVG Export Plug-In . SVG Version: 2.1.1 Build 3)  -->
  <defs>
    <style>
      .st0 {
        fill: #231f20;
      }
    </style>
  </defs>
  <g>
    <path class="st0" d="M54.4,32.54c-.15.12-.32.12-.44-.03l-.5-.74c-.09-.15-.06-.29.09-.41,1-.85,2.5-1.35,4.48-1.35,3.65,0,5.12,1.21,5.12,4.65v9.39c0,.18-.12.29-.29.29h-.94c-.18,0-.29-.12-.29-.29v-1.47h-.03c-.56,1.18-2.06,2.06-4.36,2.06-2.83,0-4.71-1.41-4.71-4.15s1.91-4.15,5.33-4.15h3.56c.12,0,.18-.06.18-.18v-1.44c0-2.3-.8-3.24-3.65-3.24-1.71,0-2.71.38-3.53,1.06ZM61.59,40.02v-2.15c0-.12-.06-.18-.18-.18h-3.36c-2.8,0-3.98.91-3.98,2.77s1.24,2.71,3.48,2.71c2.42,0,4.03-1.24,4.03-3.15Z"/>
    <path class="st0" d="M68.53,26.56c-.18,0-.29-.12-.29-.29v-1.65c0-.18.12-.29.29-.29h1.3c.18,0,.29.12.29.29v1.65c0,.18-.12.29-.29.29h-1.3ZM68.68,44.35c-.18,0-.29-.12-.29-.29v-13.46c0-.18.12-.29.29-.29h1c.18,0,.29.12.29.29v13.46c0,.18-.12.29-.29.29h-1Z"/>
    <path class="st0" d="M80.61,44.44c-2.65,0-3.65-1.03-3.65-3.8v-8.75c0-.12-.06-.18-.18-.18h-1.47c-.18,0-.29-.12-.29-.29v-.82c0-.18.12-.29.29-.29h1.47c.12,0,.18-.06.18-.18v-4.03c0-.18.12-.29.29-.29h1c.18,0,.29.12.29.29v4.03c0,.12.06.18.18.18h2.65c.18,0,.29.12.29.29v.82c0,.18-.12.29-.29.29h-2.65c-.12,0-.18.06-.18.18v8.66c0,1.88.65,2.36,2.27,2.36h.56c.18,0,.29.12.29.29v.94c0,.18-.12.29-.29.29h-.77Z"/>
    <path class="st0" d="M85.23,33.66c.74-2.3,2.65-3.65,5.24-3.65,2.21,0,3.71.94,4.74,2.65.09.15.06.29-.09.38l-.82.53c-.15.09-.29.03-.38-.12-.82-1.3-1.8-1.91-3.45-1.91-1.83,0-3.12.91-3.68,2.65-.27.77-.38,1.71-.38,3.15s.12,2.36.38,3.12c.56,1.74,1.86,2.65,3.68,2.65,1.65,0,2.62-.62,3.45-1.91.09-.15.24-.21.38-.12l.82.53c.15.09.18.24.09.38-1.03,1.71-2.53,2.65-4.74,2.65-2.59,0-4.51-1.36-5.24-3.65-.26-.88-.44-1.97-.44-3.65s.18-2.8.44-3.68Z"/>
    <path class="st0" d="M108.37,44.35c-.18,0-.29-.12-.29-.29v-8.3c0-2.8-1.24-4.21-3.68-4.21-2.15,0-3.83,1.47-3.83,3.92v8.6c0,.18-.12.29-.29.29h-1c-.18,0-.29-.12-.29-.29v-19.44c0-.18.12-.29.29-.29h1c.18,0,.29.12.29.29v7.66h.03c.71-1.38,2.18-2.27,4.15-2.27,3.12,0,4.92,1.94,4.92,5.36v8.69c0,.18-.12.29-.29.29h-1Z"/>
    <path class="st0" d="M123.71,44.35c-.18,0-.29-.12-.29-.29v-8.3c0-2.8-1.24-4.21-3.68-4.21-2.15,0-3.83,1.47-3.83,3.92v8.6c0,.18-.12.29-.29.29h-1c-.18,0-.29-.12-.29-.29v-13.46c0-.18.12-.29.29-.29h1c.18,0,.29.12.29.29v1.68h.03c.71-1.38,2.18-2.27,4.15-2.27,3.12,0,4.92,1.94,4.92,5.36v8.69c0,.18-.12.29-.29.29h-1Z"/>
    <path class="st0" d="M129.74,49.65c-.18,0-.29-.12-.29-.29v-.94c0-.18.12-.29.29-.29h.53c1.21,0,1.86-.5,2.65-2.62l.56-1.44-5.18-13.46c-.06-.18,0-.29.21-.29h1.12c.21,0,.29.09.38.29l4.27,11.28h.03l4.15-11.28c.06-.21.18-.29.35-.29h1.12c.18,0,.27.12.21.29l-5.74,15.11c-1.21,3.24-2.21,3.95-4.03,3.95h-.62Z"/>
    <path class="st0" d="M143.08,33.66c.74-2.3,2.65-3.65,5.24-3.65,2.21,0,3.71.94,4.74,2.65.09.15.06.29-.09.38l-.82.53c-.15.09-.29.03-.38-.12-.82-1.3-1.8-1.91-3.45-1.91-1.83,0-3.12.91-3.68,2.65-.27.77-.38,1.71-.38,3.15s.12,2.36.38,3.12c.56,1.74,1.86,2.65,3.68,2.65,1.65,0,2.62-.62,3.45-1.91.09-.15.24-.21.38-.12l.82.53c.15.09.18.24.09.38-1.03,1.71-2.53,2.65-4.74,2.65-2.59,0-4.51-1.36-5.24-3.65-.26-.88-.44-1.97-.44-3.65s.18-2.8.44-3.68Z"/>
  </g>
  <g>
    <path d="M14.43.12l.15.15c.04.51-.05,1.08,0,1.58.07.67,0,1.52,0,2.17v7.1l.94.74c7.01,4.48,14.1,9.12,21.15,13.51v.2c.68.18,1.39.78,2.02,1.18,1.65,1.06,3.37,2.1,5.03,3.16.31.2.49.75.25,1.04l.1.2v15.29l-.1.35c-.19-.06-.23.13-.35.2-.02.01-.07-.01-.1,0-.46.23-.85.46-1.28.69-1.01.54-2.08,1.09-3.06,1.68s-2.08,1.03-3.06,1.58c-.75.42-1.6.89-2.37,1.28-.14.07-.28.19-.44.25-.05.1-.2-.09-.2-.1v-15.98s-.17-.17-.1-.35c-.22.05-.29-.2-.44-.3-.14-.09-.32-.18-.49-.3-2.89-1.88-5.69-3.64-8.58-5.52-.87-.57-1.79-1.35-2.71-1.68v-.2c-2.74-1.54-5.48-3.64-8.28-5.23v-.2c-2.59-1.44-5-3.19-7.54-4.83-.26-.17-.49-.31-.79-.39-.03,0-.44-.41-.44-.44-.03-.1.05-.21-.1-.3V.46l.1-.25c.18.08.33-.1.35-.1h10.35Z"/>
    <path d="M3.73,46.78l-.1-.35v-21.8l.1-.35h.25c.15.07.28.22.39.3.66.42,1.4.85,2.07,1.28,1.78,1.14,3.53,2.29,5.32,3.45.77.5,1.65.97,2.37,1.48.14.1.3.24.44.35v18.84c.25.24.03.67,0,.89-.05.36.07.5,0,.89-.04.25.11.57-.15.74l-10.7-5.72Z"/>
  </g>
</svg>